<mxfile host="app.diagrams.net" agent="Mozilla/5.0 (Windows NT 10.0; Win64; x64) AppleWebKit/537.36 (KHTML, like Gecko) Chrome/128.0.0.0 Safari/537.36 Edg/128.0.0.0" version="24.7.14">
  <diagram name="1 oldal" id="DTA3IY_fh_DElP8OYFjD">
    <mxGraphModel dx="794" dy="458" grid="1" gridSize="10" guides="1" tooltips="1" connect="1" arrows="1" fold="1" page="1" pageScale="1" pageWidth="827" pageHeight="1169" math="0" shadow="0">
      <root>
        <mxCell id="0" />
        <mxCell id="1" parent="0" />
        <mxCell id="-p4tvdIGXUo_DYq2XABA-2" value="Web-es alkalmazások" style="rounded=0;whiteSpace=wrap;html=1;" vertex="1" parent="1">
          <mxGeometry x="130" y="150" width="100" height="40" as="geometry" />
        </mxCell>
        <mxCell id="-p4tvdIGXUo_DYq2XABA-7" value="IT épület, 101-es terem" style="ellipse;whiteSpace=wrap;html=1;" vertex="1" parent="1">
          <mxGeometry x="50" y="50" width="90" height="50" as="geometry" />
        </mxCell>
        <mxCell id="-p4tvdIGXUo_DYq2XABA-8" value="" style="endArrow=none;html=1;rounded=0;entryX=0.333;entryY=0.017;entryDx=0;entryDy=0;entryPerimeter=0;exitX=0.778;exitY=0.947;exitDx=0;exitDy=0;exitPerimeter=0;" edge="1" parent="1" source="-p4tvdIGXUo_DYq2XABA-7" target="-p4tvdIGXUo_DYq2XABA-2">
          <mxGeometry width="50" height="50" relative="1" as="geometry">
            <mxPoint x="110" y="140" as="sourcePoint" />
            <mxPoint x="160" y="90" as="targetPoint" />
            <Array as="points" />
          </mxGeometry>
        </mxCell>
        <mxCell id="-p4tvdIGXUo_DYq2XABA-9" value="Kedd&lt;div&gt;(gyakorlat)&lt;/div&gt;&lt;div&gt;16:00-18:00&lt;/div&gt;" style="ellipse;whiteSpace=wrap;html=1;" vertex="1" parent="1">
          <mxGeometry x="170" y="50" width="120" height="50" as="geometry" />
        </mxCell>
        <mxCell id="-p4tvdIGXUo_DYq2XABA-10" value="" style="endArrow=none;html=1;rounded=0;" edge="1" parent="1">
          <mxGeometry width="50" height="50" relative="1" as="geometry">
            <mxPoint x="180" y="150" as="sourcePoint" />
            <mxPoint x="230" y="100" as="targetPoint" />
          </mxGeometry>
        </mxCell>
      </root>
    </mxGraphModel>
  </diagram>
</mxfile>
